<svg xmlns="http://www.w3.org/2000/svg" width="210.44824mm" height="214.07155mm" viewBox="0 0 210.44824 214.07155"><path d="M0 0h-37.64v50.978H0v-8.153h6.67v11.488a3.334 3.334 0 0 1-3.335 3.335h-44.309a3.336 3.336 0 0 1-3.336-3.335V-3.336a3.336 3.336 0 0 1 3.336-3.334H3.335A3.335 3.335 0 0 1 6.67-3.336V8.062H0Z" style="fill:#1a2680;fill-opacity:1;fill-rule:nonzero;stroke:none" transform="matrix(1.71558 0 0 -1.71558 134.301 147.834)"/><path d="M0 0h1.853C5.721 0 9.75 2.047 9.75 7.789c0 4.731-3.01 7.788-7.827 7.788H0Zm-6.392-5.323V20.9h9.594c7.351 0 13.223-5.881 13.223-13.111S10.553-5.323 3.202-5.323z" style="fill:#1a2680;fill-opacity:1;fill-rule:nonzero;stroke:none" transform="matrix(1.71558 0 0 -1.71558 145.257 117.538)"/><path d="M0 0h1.853C5.721 0 9.75 2.047 9.75 7.789c0 4.731-3.01 7.788-7.827 7.788H0Zm-6.392-5.323V20.9h9.594c7.351 0 13.223-5.881 13.223-13.111S10.553-5.323 3.202-5.323z" style="fill:#1a2680;fill-opacity:1;fill-rule:nonzero;stroke:none" transform="matrix(1.71558 0 0 -1.71558 145.257 117.538)"/><path d="M0 0c.279 3.326 10.58 4.111 17.018 4.98 2.108.286 15.144 1.496 25.107 3.772-2.408-2.189-4.604-5.076-20.609-7.227C20.323 1.381 12.426.51 10.151.171c3.586-.622 4.344-.859 7.946-1.355C33.621-3.32 38.261-4.056 38.261-7.377c0-2.965-4.354-3.604-19.392-5.787 0 0-9.82-1.139-16.296-4.883-.002 0 1.91 6.946 14.977 9.037 2.211.353 9.126 1.162 10.763 1.396-3.513.531-7.405.878-10.752 1.315C3.321-4.436-.191-3.629 0 0" style="fill:#1a2680;fill-opacity:1;fill-rule:nonzero;stroke:none" transform="matrix(1.71558 0 0 -1.71558 68.285 15.015)"/><path d="M0 0h.681c1.686 0 3.593 0 3.593 2.412 0 2.51-1.827 2.51-3.593 2.51H0Zm-4.335-9.441V8.34h6.728c4.131 0 6.408-2.053 6.408-5.781 0-4.024-2.043-5.975-6.241-5.975H0v-6.025z" style="fill:#1a2680;fill-opacity:1;fill-rule:nonzero;stroke:none" transform="matrix(1.71558 0 0 -1.71558 105.184 197.003)"/><path d="M0 0h1.256C3.877 0 6.61 1.391 6.61 5.283c0 3.209-2.04 5.281-5.307 5.281H0Zm-4.334-3.607v17.781H2.17c4.984 0 8.966-3.988 8.966-8.891 0-4.902-3.982-8.89-8.966-8.89z" style="fill:#1a2680;fill-opacity:1;fill-rule:nonzero;stroke:none" transform="matrix(1.71558 0 0 -1.71558 7.435 207.012)"/><path d="M0 0h.654c1.492 0 3.472.254 3.472 2.461 0 2.205-1.98 2.461-3.472 2.461H0Zm4.809-9.635L.353-2.645H0v-6.99h-4.333v17.78h6.866c3.887 0 6.12-1.967 6.12-5.395 0-2.59-1.498-4.531-3.815-4.941l-.317-.057 5.665-7.387z" style="fill:#1a2680;fill-opacity:1;fill-rule:nonzero;stroke:none" transform="matrix(1.71558 0 0 -1.71558 39.991 196.671)"/><path d="M0 0v14.17h-3.903v3.611H8.238V14.17H4.333V0Z" style="fill:#1a2680;fill-opacity:1;fill-rule:nonzero;stroke:none" transform="matrix(1.71558 0 0 -1.71558 132.633 213.2)"/><path d="M0 0c-2.693 0-4.833-2.291-4.833-4.924 0-3.119 1.998-5.299 4.833-5.299 2.834 0 4.829 2.18 4.829 5.299C4.829-2.291 2.692 0 0 0m0-14.496c-5.416 0-9.349 3.957-9.349 9.598C-9.349.098-5.153 4.301 0 4.301c5.153 0 9.348-4.203 9.348-9.199 0-5.641-3.931-9.598-9.348-9.598" style="fill:#1a2680;fill-opacity:1;fill-rule:nonzero;stroke:none" transform="matrix(1.71558 0 0 -1.71558 75.924 189.202)"/><path d="M0 0h.682c1.683 0 3.593 0 3.593 2.412 0 2.51-1.829 2.51-3.593 2.51H0Zm-4.333-9.441V8.34h6.727c4.13 0 6.408-2.053 6.408-5.781 0-4.024-2.042-5.975-6.241-5.975H0v-6.025z" style="fill:#1a2680;fill-opacity:1;fill-rule:nonzero;stroke:none" transform="matrix(1.71558 0 0 -1.71558 195.348 197.003)"/><path d="M0 0c-2.694 0-4.831-2.291-4.831-4.924 0-3.119 1.994-5.299 4.831-5.299 2.833 0 4.828 2.18 4.828 5.299C4.828-2.291 2.69 0 0 0m0-14.496c-5.417 0-9.346 3.957-9.346 9.598 0 4.996 4.19 9.199 9.346 9.199 5.153 0 9.347-4.203 9.347-9.199 0-5.641-3.932-9.598-9.347-9.598" style="fill:#1a2680;fill-opacity:1;fill-rule:nonzero;stroke:none" transform="matrix(1.71558 0 0 -1.71558 166.656 189.202)"/></svg>